<svg width="49" height="50" viewBox="0 0 49 50" fill="none" xmlns="http://www.w3.org/2000/svg">
<g id="Frame 4017-3">
<g id="Clip path group">
<mask id="mask0_10475_730" style="mask-type:luminance" maskUnits="userSpaceOnUse" x="12" y="10" width="25" height="30">
<g id="clip0_1792_289">
<path id="Vector" d="M37 10.5H12V39.5H37V10.5Z" fill="white"/>
</g>
</mask>
<g mask="url(#mask0_10475_730)">
<g id="Group">
<path id="Vector_2" d="M27.7489 39.5H14.6982C13.2115 39.5 12 38.2754 12 36.7726V13.2274C12 11.7246 13.2115 10.5 14.6982 10.5H27.7489C29.2357 10.5 30.4471 11.7246 30.4471 13.2274V16.3445C30.4471 16.6228 30.2269 16.9012 29.8965 16.9012C29.5661 16.9012 29.3458 16.6785 29.3458 16.3445V13.2274C29.3458 12.3369 28.63 11.6132 27.7489 11.6132H14.6982C13.8172 11.6132 13.1013 12.3369 13.1013 13.2274V36.8282C13.1013 37.7188 13.8172 38.4424 14.6982 38.4424H27.7489C28.63 38.4424 29.3458 37.7188 29.3458 36.8282V33.8225C29.3458 33.5441 29.5661 33.2658 29.8965 33.2658C30.2269 33.2658 30.4471 33.4885 30.4471 33.8225V36.8282C30.4471 38.3311 29.2357 39.5557 27.7489 39.5557V39.5Z" fill="#F26922"/>
<path id="Vector_3" d="M29.8965 15.5117H12.5507C12.2753 15.5117 12 15.289 12 14.9551C12 14.6211 12.2203 14.3984 12.5507 14.3984H29.8965C30.1718 14.3984 30.4471 14.6211 30.4471 14.9551C30.4471 15.289 30.2269 15.5117 29.8965 15.5117Z" fill="#F26922"/>
<path id="Vector_4" d="M29.8965 35.6054H12.5507C12.2753 35.6054 12 35.3828 12 35.0488C12 34.7148 12.2203 34.4922 12.5507 34.4922H29.8965C30.1718 34.4922 30.4471 34.7148 30.4471 35.0488C30.4471 35.3828 30.2269 35.6054 29.8965 35.6054Z" fill="#F26922"/>
<path id="Vector_5" d="M35.2928 30.8746H27.0879C26.1518 30.8746 25.3809 30.0953 25.3809 29.1491V21.0224C25.3809 20.0761 26.1518 19.2969 27.0879 19.2969H35.2928C36.2289 19.2969 36.9998 20.0761 36.9998 21.0224V29.0934C36.9998 30.0397 36.2289 30.8189 35.2928 30.8189V30.8746ZM27.0879 20.4101C26.7575 20.4101 26.4822 20.6884 26.4822 21.0224V29.0934C26.4822 29.4274 26.7575 29.7057 27.0879 29.7057H35.2928C35.6231 29.7057 35.8985 29.4274 35.8985 29.0934V21.0224C35.8985 20.6884 35.6231 20.4101 35.2928 20.4101H27.0879Z" fill="#F26922"/>
<path id="Vector_6" d="M31.1629 29.1501C28.9602 29.1501 27.1431 27.3133 27.1431 25.0868C27.1431 22.8603 28.9602 21.0234 31.1629 21.0234C33.3655 21.0234 35.1827 22.8603 35.1827 25.0868C35.1827 27.3133 33.3655 29.1501 31.1629 29.1501ZM31.1629 22.1367C29.566 22.1367 28.2444 23.4726 28.2444 25.0868C28.2444 26.701 29.566 28.0369 31.1629 28.0369C32.7598 28.0369 34.0814 26.701 34.0814 25.0868C34.0814 23.4726 32.7598 22.1367 31.1629 22.1367Z" fill="#F26922"/>
<path id="Vector_7" d="M32.3195 26.7557C32.3195 26.7557 32.0441 26.7557 31.934 26.5887L30.8327 25.4755C30.8327 25.4755 30.6675 25.2528 30.6675 25.0859V23.416C30.6675 23.1377 30.8877 22.8594 31.2181 22.8594C31.5485 22.8594 31.7688 23.082 31.7688 23.416V24.8632L32.7049 25.8095C32.7049 25.8095 32.9252 26.3661 32.7049 26.5887C32.5948 26.7001 32.4847 26.7557 32.3195 26.7557Z" fill="#F26922"/>
<path id="Vector_8" d="M34.4668 20.41H27.9139C27.6386 20.41 27.3633 20.1874 27.3633 19.8534V17.6269C27.3633 17.3486 27.5835 17.0703 27.9139 17.0703C28.2443 17.0703 28.4646 17.293 28.4646 17.6269V19.2968H33.9161V17.6269C33.9161 17.3486 34.1364 17.0703 34.4668 17.0703C34.7972 17.0703 35.0175 17.293 35.0175 17.6269V19.8534C35.0175 20.1317 34.7972 20.41 34.4668 20.41Z" fill="#F26922"/>
<path id="Vector_9" d="M34.4668 33.0429C34.1915 33.0429 33.9161 32.8202 33.9161 32.4862V30.8164H28.4646V32.4862C28.4646 32.7645 28.2443 33.0429 27.9139 33.0429C27.5835 33.0429 27.3633 32.8202 27.3633 32.4862V30.2597C27.3633 29.9814 27.5835 29.7031 27.9139 29.7031H34.4668C34.7421 29.7031 35.0175 29.9258 35.0175 30.2597V32.4862C35.0175 32.7645 34.7972 33.0429 34.4668 33.0429Z" fill="#F26922"/>
<path id="Vector_10" d="M23.1785 22.9648H15.0287C14.7534 22.9648 14.478 22.7422 14.478 22.4082C14.478 22.0742 14.6983 21.8516 15.0287 21.8516H23.1785C23.4538 21.8516 23.7291 22.0742 23.7291 22.4082C23.7291 22.7422 23.5089 22.9648 23.1785 22.9648Z" fill="#F26922"/>
<path id="Vector_11" d="M15.0286 22.9652C15.0286 22.9652 14.7533 22.9652 14.6982 22.8538C14.478 22.6312 14.4229 22.2972 14.6431 22.0746L15.9647 20.5717C15.9647 20.5717 16.5154 20.2934 16.7357 20.516C16.9559 20.7387 17.011 21.0726 16.7907 21.2953L15.4691 22.7982C15.4691 22.7982 15.1938 22.9652 15.0286 22.9652Z" fill="#F26922"/>
<path id="Vector_12" d="M15.0286 22.9652C15.0286 22.9652 14.7533 22.9652 14.6982 22.8538C14.478 22.6312 14.4229 22.2972 14.6431 22.0746L15.9647 20.5717C15.9647 20.5717 16.5154 20.2934 16.7357 20.516C16.9559 20.7387 17.011 21.0726 16.7907 21.2953L15.4691 22.7982C15.4691 22.7982 15.1938 22.9652 15.0286 22.9652Z" fill="#F26922"/>
<path id="Vector_13" d="M16.3504 24.4737C16.3504 24.4737 16.02 24.418 15.9099 24.3067L14.5883 22.8038C14.5883 22.8038 14.4231 22.2472 14.6433 22.0246C14.8636 21.8019 15.194 21.8576 15.4143 22.0802L16.7359 23.5831C16.7359 23.5831 16.9011 24.1397 16.6808 24.3624C16.5707 24.4737 16.4605 24.4737 16.3504 24.4737Z" fill="#F26922"/>
<path id="Vector_14" d="M23.1785 28.2539H15.0287C14.7534 28.2539 14.478 28.0312 14.478 27.6972C14.478 27.3633 14.6983 27.1406 15.0287 27.1406H23.1785C23.4538 27.1406 23.7291 27.3633 23.7291 27.6972C23.7291 28.0312 23.5089 28.2539 23.1785 28.2539Z" fill="#F26922"/>
<path id="Vector_15" d="M21.8567 29.8167C21.8567 29.8167 21.5814 29.8167 21.5263 29.7054C21.3061 29.4827 21.251 29.1488 21.4713 28.9261L22.7929 27.4232C22.7929 27.4232 23.3435 27.1449 23.5638 27.3676C23.784 27.5902 23.8391 27.9242 23.6189 28.1469L22.2973 29.6497C22.2973 29.6497 22.0219 29.8167 21.8567 29.8167Z" fill="#F26922"/>
<path id="Vector_16" d="M21.8567 29.8167C21.8567 29.8167 21.5814 29.8167 21.5263 29.7054C21.3061 29.4827 21.251 29.1488 21.4713 28.9261L22.7929 27.4232C22.7929 27.4232 23.3435 27.1449 23.5638 27.3676C23.784 27.5902 23.8391 27.9242 23.6189 28.1469L22.2973 29.6497C22.2973 29.6497 22.0219 29.8167 21.8567 29.8167Z" fill="#F26922"/>
<path id="Vector_17" d="M23.1785 28.2549C23.1785 28.2549 22.8481 28.1993 22.738 28.088L21.4164 26.5851C21.4164 26.5851 21.2512 26.0284 21.4715 25.8058C21.6917 25.5832 22.0221 25.6388 22.2424 25.8615L23.564 27.3643C23.564 27.3643 23.7292 27.921 23.5089 28.1436C23.3988 28.2549 23.2887 28.2549 23.1235 28.2549H23.1785Z" fill="#F26922"/>
</g>
</g>
</g>
</g>
</svg>
