<svg width="49" height="50" viewBox="0 0 49 50" fill="none" xmlns="http://www.w3.org/2000/svg">
<g id="Frame 4017-2">
<g id="Clip path group">
<mask id="mask0_10475_705" style="mask-type:luminance" maskUnits="userSpaceOnUse" x="10" y="10" width="30" height="31">
<g id="clip0_1792_251">
<path id="Vector" d="M40 10.5H10V40.5H40V10.5Z" fill="white"/>
</g>
</mask>
<g mask="url(#mask0_10475_705)">
<g id="Group">
<path id="Vector_2" d="M24.9709 37.9981C21.6505 37.9981 18.5049 36.7166 16.1165 34.3282C11.2816 29.435 11.2816 21.5127 16.1748 16.6777C18.5049 14.3476 21.6505 13.0078 25.0291 13.0078C25.3204 13.0078 25.6117 13.2408 25.6117 13.5903C25.6117 13.9399 25.3787 14.1729 25.0291 14.1729C22 14.1729 19.1456 15.3379 16.9903 17.4932C12.5631 21.9204 12.5631 29.0855 16.9903 33.5127C21.4175 37.9398 28.5825 37.9398 33.0097 33.5127C34.9321 31.5903 36.0971 29.0855 36.2719 26.4059C36.2719 26.1146 36.5631 25.8816 36.9126 25.8816C37.2039 25.8816 37.4369 26.1729 37.4369 26.5224C37.2039 29.4932 35.9223 32.2311 33.8253 34.3282C31.4952 36.6583 28.3495 37.9981 24.9709 37.9981Z" fill="#F26922"/>
<path id="Vector_3" d="M26.1359 14.2275C25.7863 14.2275 25.4368 14.2275 25.0291 14.2275C24.7378 14.2275 24.4465 13.9945 24.4465 13.645C24.4465 13.2955 24.6795 13.0625 25.0291 13.0625C25.4368 13.0625 25.8446 13.0625 26.1941 13.0625C26.4854 13.0625 26.7184 13.3538 26.7184 13.7033C26.7184 13.9945 26.4271 14.2275 26.1359 14.2275Z" fill="#F26922"/>
<path id="Vector_4" d="M36.6213 23.4323C36.6213 23.4323 36.0971 23.2575 36.0388 22.9663C35.864 22.209 35.631 21.4517 35.2815 20.7527C35.165 20.4614 35.2815 20.1119 35.5728 19.9954C35.864 19.8789 36.2136 19.9954 36.3301 20.2866C36.6796 21.1022 36.9708 21.9177 37.1456 22.7332C37.2039 23.0245 37.0291 23.374 36.7378 23.4323H36.6213ZM34.5825 18.9468C34.5825 18.9468 34.233 18.8886 34.1165 18.7138C33.767 18.3061 33.4174 17.84 33.0679 17.4905C32.8932 17.3158 32.7184 17.141 32.5437 16.9663C32.3106 16.7332 32.3106 16.3837 32.5437 16.1507C32.7767 15.9177 33.1262 15.9177 33.3592 16.1507C33.534 16.3255 33.767 16.5002 33.9417 16.675C34.3495 17.0828 34.7573 17.5488 35.1068 18.0148C35.2815 18.2478 35.2233 18.5973 34.9903 18.8303C34.8738 18.8886 34.7573 18.9468 34.6407 18.9468H34.5825ZM30.8543 15.6847C30.8543 15.6847 30.6796 15.6847 30.5631 15.6265C29.864 15.2187 29.165 14.9274 28.4077 14.6944C28.1165 14.5779 27.9417 14.2866 28.0582 13.9954C28.1747 13.7041 28.466 13.5294 28.7573 13.6459C29.5728 13.8789 30.3883 14.2284 31.1456 14.6944C31.4369 14.8692 31.4951 15.2187 31.3786 15.4517C31.2621 15.6265 31.0873 15.743 30.8543 15.743V15.6847Z" fill="#F26922"/>
<path id="Vector_5" d="M36.8544 27.041C36.5631 27.041 36.3301 26.7498 36.3301 26.4003C36.3301 26.0507 36.3301 25.7012 36.3301 25.2935C36.3301 25.0022 36.5631 24.7109 36.9126 24.7109C37.2039 24.7109 37.4951 24.9439 37.4951 25.2935C37.4951 25.7012 37.4951 26.109 37.4951 26.5168C37.4951 26.808 37.2039 27.041 36.9126 27.041H36.8544Z" fill="#F26922"/>
<path id="Vector_6" d="M24.971 19.3567C24.6797 19.3567 24.3884 19.1237 24.3884 18.7742V16.1528C24.3884 15.8616 24.6214 15.5703 24.971 15.5703C25.3205 15.5703 25.5535 15.8033 25.5535 16.1528V18.7742C25.5535 19.0655 25.3205 19.3567 24.971 19.3567Z" fill="#F26922"/>
<path id="Vector_7" d="M24.9709 40.5C16.699 40.5 10 33.7427 10 25.4709C10 17.199 16.699 10.5 24.9709 10.5C33.2427 10.5 39.9417 17.199 39.9417 25.4709C39.9417 33.7427 33.2427 40.4417 24.9709 40.4417V40.5ZM24.9709 11.665C17.3398 11.665 11.165 17.8398 11.165 25.4709C11.165 33.1019 17.3981 39.3349 25.0291 39.3349C32.6602 39.3349 38.8932 33.1019 38.8932 25.4709C38.8932 17.8398 32.6602 11.665 24.9709 11.665Z" fill="#F26922"/>
<path id="Vector_8" d="M24.971 19.3567C24.6797 19.3567 24.3884 19.1237 24.3884 18.7742V16.1528C24.3884 15.8616 24.6214 15.5703 24.971 15.5703C25.3205 15.5703 25.5535 15.8033 25.5535 16.1528V18.7742C25.5535 19.0655 25.3205 19.3567 24.971 19.3567Z" fill="#F26922"/>
<path id="Vector_9" d="M28.8737 19.2992C28.8737 19.2992 28.699 19.2992 28.5825 19.2409C28.2912 19.0662 28.233 18.7167 28.3495 18.4837L29.1068 17.2021C29.1068 17.2021 29.631 16.8526 29.864 16.9691C30.1553 17.1438 30.2135 17.4934 30.097 17.7264L29.3398 19.0079C29.3398 19.0079 29.0485 19.2992 28.8737 19.2992Z" fill="#F26922"/>
<path id="Vector_10" d="M31.7281 22.1543C31.7281 22.1543 31.3203 22.0378 31.262 21.8631C31.0873 21.5718 31.2038 21.2223 31.4951 21.1058L32.7766 20.3485C32.7766 20.3485 33.4174 20.2903 33.5339 20.5815C33.6504 20.8728 33.5921 21.2223 33.3009 21.3388L32.0193 22.0961C32.0193 22.0961 31.8446 22.1543 31.7281 22.1543Z" fill="#F26922"/>
<path id="Vector_11" d="M34.2913 26.0557H31.6699C31.3787 26.0557 31.0874 25.8227 31.0874 25.4731C31.0874 25.1236 31.3204 24.8906 31.6699 24.8906H34.2913C34.5825 24.8906 34.8738 25.1236 34.8738 25.4731C34.8738 25.8227 34.6408 26.0557 34.2913 26.0557Z" fill="#F26922"/>
<path id="Vector_12" d="M33.0679 30.7136C33.0679 30.7136 32.8931 30.7136 32.7766 30.6554L31.4951 29.8981C31.4951 29.8981 31.1456 29.3738 31.2621 29.1408C31.4368 28.8496 31.7863 28.7913 32.0193 28.9078L33.3009 29.6651C33.3009 29.6651 33.6504 30.1894 33.5339 30.4224C33.4174 30.5971 33.2426 30.7136 33.0679 30.7136Z" fill="#F26922"/>
<path id="Vector_13" d="M29.6311 34.1466C29.6311 34.1466 29.2234 34.0301 29.1651 33.8553L28.4078 32.5738C28.4078 32.5738 28.3496 31.933 28.6408 31.8165C28.9321 31.6417 29.2816 31.7582 29.3981 32.0495L30.1554 33.331C30.1554 33.331 30.2137 33.9718 29.9224 34.0883C29.8059 34.0883 29.7476 34.1466 29.6311 34.1466Z" fill="#F26922"/>
<path id="Vector_14" d="M24.971 35.3723C24.6797 35.3723 24.3884 35.1393 24.3884 34.7898V32.1685C24.3884 31.8772 24.6214 31.5859 24.971 31.5859C25.3205 31.5859 25.5535 31.8189 25.5535 32.1685V34.7898C25.5535 35.0811 25.3205 35.3723 24.971 35.3723Z" fill="#F26922"/>
<path id="Vector_15" d="M20.3108 34.1507C20.3108 34.1507 20.136 34.1507 20.0195 34.0925C19.7282 33.9177 19.67 33.5682 19.7865 33.3352L20.5438 32.0537C20.5438 32.0537 21.068 31.7041 21.301 31.8207C21.5923 31.9954 21.6506 32.3449 21.5341 32.5779L20.7768 33.8595C20.7768 33.8595 20.4855 34.1507 20.3108 34.1507Z" fill="#F26922"/>
<path id="Vector_16" d="M16.9319 30.7168C16.9319 30.7168 16.5242 30.6003 16.4659 30.4256C16.2911 30.1343 16.4076 29.7848 16.6989 29.6683L17.9805 28.911C17.9805 28.911 18.6212 28.8528 18.7377 29.144C18.9125 29.4353 18.796 29.7848 18.5047 29.9013L17.2232 30.6586C17.2232 30.6586 17.0484 30.7168 16.9319 30.7168Z" fill="#F26922"/>
<path id="Vector_17" d="M18.3301 26.0557H15.7087C15.4175 26.0557 15.1262 25.8227 15.1262 25.4731C15.1262 25.1236 15.3592 24.8906 15.7087 24.8906H18.3301C18.6214 24.8906 18.9126 25.1236 18.9126 25.4731C18.9126 25.8227 18.6796 26.0557 18.3301 26.0557Z" fill="#F26922"/>
<path id="Vector_18" d="M18.2136 22.1511C18.2136 22.1511 18.0389 22.1511 17.9224 22.0929L16.6408 21.3356C16.6408 21.3356 16.2913 20.8113 16.4078 20.5783C16.5826 20.2871 16.9321 20.2288 17.1651 20.3453L18.4466 21.1026C18.4466 21.1026 18.7962 21.6269 18.6797 21.8599C18.5631 22.0346 18.3884 22.1511 18.2136 22.1511Z" fill="#F26922"/>
<path id="Vector_19" d="M21.0679 19.295C21.0679 19.295 20.6601 19.1785 20.6019 19.0038L19.8446 17.7222C19.8446 17.7222 19.7863 17.0814 20.0776 16.9649C20.3689 16.7902 20.7184 16.9067 20.8349 17.1979L21.5922 18.4795C21.5922 18.4795 21.6504 19.1203 21.3592 19.2368C21.2427 19.2368 21.1844 19.295 21.0679 19.295Z" fill="#F26922"/>
<path id="Vector_20" d="M24.9709 28.0949C24.3301 28.0949 23.6311 27.8619 23.1651 27.3376C22.1748 26.3473 22.1748 24.7162 23.1651 23.6677C23.3398 23.4929 23.5728 23.3182 23.8641 23.2017L29.1068 20.6968C29.1068 20.6968 29.5729 20.6386 29.7476 20.8133C29.9224 20.9881 29.9806 21.2211 29.8641 21.4541L27.3593 26.6386C27.3593 26.6386 27.068 27.1046 26.8932 27.3376C26.369 27.8619 25.7282 28.0949 25.0874 28.0949H24.9709ZM28.0583 22.4444L24.3301 24.2502C24.3301 24.2502 24.0971 24.425 23.9806 24.5415C23.3981 25.124 23.3981 25.9978 23.9806 26.5803C24.5631 27.1628 25.4369 27.1628 26.0195 26.5803C26.136 26.4638 26.1942 26.3473 26.3107 26.2308L28.1165 22.5026L28.0583 22.4444Z" fill="#F26922"/>
<path id="Vector_21" d="M37.3785 40.501H12.563C12.2717 40.501 11.9805 40.268 11.9805 39.9185C11.9805 39.5689 12.2135 39.3359 12.563 39.3359H37.3785C37.6698 39.3359 37.9611 39.5689 37.9611 39.9185C37.9611 40.268 37.728 40.501 37.3785 40.501Z" fill="#F26922"/>
</g>
</g>
</g>
</g>
</svg>
