<svg width="49" height="50" viewBox="0 0 49 50" fill="none" xmlns="http://www.w3.org/2000/svg">
<g id="Frame 4017-4">
<g id="Clip path group">
<mask id="mask0_10475_751" style="mask-type:luminance" maskUnits="userSpaceOnUse" x="11" y="11" width="28" height="29">
<g id="clip0_1792_320">
<path id="Vector" d="M39 11.5H11V39.5H39V11.5Z" fill="white"/>
</g>
</mask>
<g mask="url(#mask0_10475_751)">
<g id="Group">
<path id="Vector_2" d="M26.1758 37.0622H14.3132C14.046 37.0622 13.7788 36.8544 13.7788 36.5427V30.7765C13.7788 28.9583 14.5803 27.244 16.0231 26.0492C16.1834 25.8934 16.2903 25.6856 16.2903 25.4778C16.2903 25.27 16.1834 25.0622 16.0231 24.9064C14.5803 23.7115 13.7788 21.9973 13.7788 20.1791V14.4648C13.7788 14.2051 13.9925 13.9453 14.3132 13.9453H26.1758C26.4429 13.9453 26.7101 14.1531 26.7101 14.4648V18.5167C26.7101 18.7765 26.4964 19.0362 26.1758 19.0362C25.8551 19.0362 25.6414 18.8284 25.6414 18.5167V14.9843H14.8475V20.231C14.8475 21.7375 15.5422 23.1921 16.7177 24.1791C17.0918 24.4908 17.359 25.0102 17.359 25.5297C17.359 26.0492 17.1452 26.5167 16.7177 26.8804C15.5422 27.8674 14.8475 29.3219 14.8475 30.8284V36.0752H25.6414V32.1271C25.6414 31.8674 25.8551 31.6077 26.1758 31.6077C26.4964 31.6077 26.7101 31.8154 26.7101 32.1271V36.5947C26.7101 36.8544 26.4964 37.1141 26.1758 37.1141V37.0622Z" fill="#F26922"/>
<path id="Vector_3" d="M26.3892 14.9833H14.1525C13.1907 14.9833 12.3892 14.204 12.3892 13.269C12.3892 12.3339 13.1907 11.5547 14.1525 11.5547H26.3892C27.351 11.5547 28.1525 12.3339 28.1525 13.269C28.1525 14.204 27.351 14.9833 26.3892 14.9833ZM14.1525 12.5417C13.725 12.5417 13.4044 12.8534 13.4044 13.269C13.4044 13.6846 13.725 13.9962 14.1525 13.9962H26.3892C26.8166 13.9962 27.1373 13.6846 27.1373 13.269C27.1373 12.8534 26.8166 12.5417 26.3892 12.5417H14.1525Z" fill="#F26922"/>
<path id="Vector_4" d="M26.3892 39.4989H14.1525C13.1907 39.4989 12.3892 38.7197 12.3892 37.7846C12.3892 36.8495 13.1907 36.0703 14.1525 36.0703H26.3892C27.351 36.0703 28.1525 36.8495 28.1525 37.7846C28.1525 38.7197 27.351 39.4989 26.3892 39.4989ZM14.1525 37.0573C13.725 37.0573 13.4044 37.369 13.4044 37.7846C13.4044 38.2002 13.725 38.5119 14.1525 38.5119H26.3892C26.8166 38.5119 27.1373 38.2002 27.1373 37.7846C27.1373 37.369 26.8166 37.0573 26.3892 37.0573H14.1525Z" fill="#F26922"/>
<path id="Vector_5" d="M26.1758 17.9921H14.3132C14.046 17.9921 13.7788 17.7843 13.7788 17.4726C13.7788 17.1609 13.9925 16.9531 14.3132 16.9531H26.1758C26.4429 16.9531 26.7101 17.1609 26.7101 17.4726C26.7101 17.7843 26.4964 17.9921 26.1758 17.9921Z" fill="#F26922"/>
<path id="Vector_6" d="M26.1758 33.3202H14.3132C14.046 33.3202 13.7788 33.1124 13.7788 32.8007C13.7788 32.489 13.9925 32.2812 14.3132 32.2812H26.1758C26.4429 32.2812 26.7101 32.489 26.7101 32.8007C26.7101 33.1124 26.4964 33.3202 26.1758 33.3202Z" fill="#F26922"/>
<path id="Vector_7" d="M35.0992 39.4999H11.5344C11.2672 39.4999 11 39.2921 11 38.9804C11 38.6687 11.2137 38.4609 11.5344 38.4609H35.0992C35.3664 38.4609 35.6336 38.6687 35.6336 38.9804C35.6336 39.2921 35.4198 39.4999 35.0992 39.4999Z" fill="#F26922"/>
<path id="Vector_8" d="M32.2138 21.0563H29.8093C29.5421 21.0563 29.2749 20.8485 29.2749 20.5368V18.1992C29.2749 17.9394 29.4886 17.6797 29.8093 17.6797H32.2138C32.481 17.6797 32.7482 17.8875 32.7482 18.1992V20.5368C32.7482 20.7966 32.5344 21.0563 32.2138 21.0563ZM30.3436 20.0173H31.6795V18.7186H30.3436V20.0173Z" fill="#F26922"/>
<path id="Vector_9" d="M38.4658 27.1891H36.0612C35.794 27.1891 35.5269 26.9813 35.5269 26.6696V24.332C35.5269 24.0722 35.7406 23.8125 36.0612 23.8125H38.4658C38.733 23.8125 39.0001 24.0203 39.0001 24.332V26.6696C39.0001 26.9294 38.7864 27.1891 38.4658 27.1891ZM36.5956 26.1502H37.9314V24.8515H36.5956V26.1502Z" fill="#F26922"/>
<path id="Vector_10" d="M32.2138 33.2672H29.8093C29.5421 33.2672 29.2749 33.0595 29.2749 32.7478V30.4101C29.2749 30.1504 29.4886 29.8906 29.8093 29.8906H32.2138C32.481 29.8906 32.7482 30.0984 32.7482 30.4101V32.7478C32.7482 33.0075 32.5344 33.2672 32.2138 33.2672ZM30.3436 32.2283H31.6795V30.9296H30.3436V32.2283Z" fill="#F26922"/>
<path id="Vector_11" d="M25.9082 27.1891H23.5036C23.2364 27.1891 22.9692 26.9813 22.9692 26.6696V24.332C22.9692 24.0722 23.183 23.8125 23.5036 23.8125H25.9082C26.1753 23.8125 26.4425 24.0203 26.4425 24.332V26.6696C26.4425 26.9294 26.2288 27.1891 25.9082 27.1891ZM24.0379 26.1502H25.3738V24.8515H24.0379V26.1502Z" fill="#F26922"/>
<path id="Vector_12" d="M32.2137 32.642C32.2137 32.642 31.9465 32.642 31.8931 32.5381C31.7862 32.4342 31.7328 32.2784 31.7328 32.1745V31.0316H30.3969V32.1745C30.3969 32.1745 30.3435 32.4862 30.2366 32.5381C30.1297 32.642 29.9694 32.694 29.8091 32.642C26.7099 32.1226 24.3053 29.7849 23.771 26.7719C23.771 26.6161 23.771 26.4602 23.8778 26.3563C23.9847 26.2524 24.145 26.2005 24.3053 26.2005H25.4809V24.9018H24.3053C24.3053 24.9018 23.9847 24.8498 23.8778 24.694C23.771 24.5381 23.7175 24.4342 23.771 24.2784C24.3053 21.3174 26.8168 18.8758 29.8091 18.4083C29.9694 18.4083 30.1297 18.4083 30.2366 18.5122C30.3435 18.6161 30.3969 18.7719 30.3969 18.8758V20.0187H31.7328V18.8758C31.7328 18.8758 31.7862 18.5641 31.8931 18.4602C32 18.3563 32.1603 18.3044 32.3206 18.3563C35.4198 18.8758 37.8244 21.2135 38.3587 24.2264C38.3587 24.3823 38.3587 24.5381 38.2519 24.642C38.145 24.7459 37.9847 24.7979 37.8244 24.7979H36.6488V26.0966H37.8244C37.8244 26.0966 38.145 26.1485 38.2519 26.2524C38.3587 26.3563 38.4122 26.5122 38.3587 26.668C37.8244 29.681 35.4198 32.0187 32.3206 32.5381H32.2137V32.642ZM29.8091 29.9927H32.2137C32.4809 29.9927 32.7481 30.2005 32.7481 30.5122V31.4992C34.8855 30.9277 36.5954 29.2654 37.1832 27.1875H36.1679C35.9007 27.1875 35.6336 26.9797 35.6336 26.668V24.3303C35.6336 24.0706 35.8473 23.8109 36.1679 23.8109H37.1832C36.5954 21.7329 34.8855 20.0706 32.7481 19.4992V20.5381C32.7481 20.7979 32.5343 21.0576 32.2137 21.0576H29.8091C29.542 21.0576 29.2748 20.8498 29.2748 20.5381V19.4992C27.1908 20.0706 25.4809 21.7329 24.8397 23.8109H25.8549C26.1221 23.8109 26.3893 24.0187 26.3893 24.3303V26.668C26.3893 26.9277 26.1755 27.1875 25.8549 27.1875H24.7862C25.374 29.2654 27.0839 30.9277 29.2213 31.4992V30.5122C29.2213 30.2524 29.4351 29.9927 29.7557 29.9927H29.8091Z" fill="#F26922"/>
<path id="Vector_13" d="M32.6945 27.6569C32.6945 27.6569 32.4273 27.6569 32.3204 27.501L30.6105 25.8387C30.6105 25.8387 30.4502 25.6309 30.4502 25.475V22.4101C30.4502 22.1504 30.6639 21.8906 30.9845 21.8906C31.3052 21.8906 31.5189 22.0984 31.5189 22.4101V25.2672L33.0685 26.7737C33.0685 26.7737 33.2823 27.2932 33.0685 27.501C32.9616 27.6049 32.8548 27.6569 32.6945 27.6569Z" fill="#F26922"/>
<path id="Vector_14" d="M18.8014 24.3279C18.5343 24.3279 18.2671 24.1201 18.2671 23.8084V22.7695C18.2671 22.5097 18.4808 22.25 18.8014 22.25C19.1221 22.25 19.3358 22.4578 19.3358 22.7695V23.8084C19.3358 24.0682 19.1221 24.3279 18.8014 24.3279Z" fill="#F26922"/>
<path id="Vector_15" d="M18.8014 27.1916C18.5343 27.1916 18.2671 26.9838 18.2671 26.6721V25.2695C18.2671 25.0097 18.4808 24.75 18.8014 24.75C19.1221 24.75 19.3358 24.9578 19.3358 25.2695V26.6721C19.3358 26.9318 19.1221 27.1916 18.8014 27.1916Z" fill="#F26922"/>
<path id="Vector_16" d="M18.8014 29.6326C18.5343 29.6326 18.2671 29.4248 18.2671 29.1131V28.0742C18.2671 27.8144 18.4808 27.5547 18.8014 27.5547C19.1221 27.5547 19.3358 27.7625 19.3358 28.0742V29.1131C19.3358 29.3729 19.1221 29.6326 18.8014 29.6326Z" fill="#F26922"/>
<path id="Vector_17" d="M21.1525 24.3279C20.8853 24.3279 20.6182 24.1201 20.6182 23.8084V22.7695C20.6182 22.5097 20.8319 22.25 21.1525 22.25C21.4731 22.25 21.6869 22.4578 21.6869 22.7695V23.8084C21.6869 24.0682 21.4731 24.3279 21.1525 24.3279Z" fill="#F26922"/>
<path id="Vector_18" d="M21.1525 27.1916C20.8853 27.1916 20.6182 26.9838 20.6182 26.6721V25.2695C20.6182 25.0097 20.8319 24.75 21.1525 24.75C21.4731 24.75 21.6869 24.9578 21.6869 25.2695V26.6721C21.6869 26.9318 21.4731 27.1916 21.1525 27.1916Z" fill="#F26922"/>
<path id="Vector_19" d="M21.1525 29.6326C20.8853 29.6326 20.6182 29.4248 20.6182 29.1131V28.0742C20.6182 27.8144 20.8319 27.5547 21.1525 27.5547C21.4731 27.5547 21.6869 27.7625 21.6869 28.0742V29.1131C21.6869 29.3729 21.4731 29.6326 21.1525 29.6326Z" fill="#F26922"/>
</g>
</g>
</g>
</g>
</svg>
